<?xml version="1.0" encoding="UTF-8" standalone="no"?>
<!-- Created with Inkscape (http://www.inkscape.org/) -->

<svg
   width="500"
   height="500"
   viewBox="0 0 500 500"
   version="1.1"
   id="svg5"
   inkscape:version="1.1.1 (eb90963e84, 2021-10-02)"
   sodipodi:docname="icon.svg"
   inkscape:export-filename="/home/stgogm/Workspace/page-width-limiter-extension/images/icon-128.png"
   inkscape:export-xdpi="24.576"
   inkscape:export-ydpi="24.576"
   xmlns:inkscape="http://www.inkscape.org/namespaces/inkscape"
   xmlns:sodipodi="http://sodipodi.sourceforge.net/DTD/sodipodi-0.dtd"
   xmlns="http://www.w3.org/2000/svg"
   xmlns:svg="http://www.w3.org/2000/svg">
  <sodipodi:namedview
     id="namedview7"
     pagecolor="#505050"
     bordercolor="#ffffff"
     borderopacity="1"
     inkscape:pageshadow="0"
     inkscape:pageopacity="0"
     inkscape:pagecheckerboard="1"
     inkscape:document-units="px"
     showgrid="true"
     inkscape:snap-text-baseline="true"
     inkscape:zoom="1.2056723"
     inkscape:cx="37.738281"
     inkscape:cy="210.25614"
     inkscape:window-width="3780"
     inkscape:window-height="1136"
     inkscape:window-x="60"
     inkscape:window-y="27"
     inkscape:window-maximized="1"
     inkscape:current-layer="layer1"
     inkscape:object-nodes="false"
     inkscape:snap-nodes="false"
     inkscape:snap-bbox="true"
     inkscape:bbox-paths="false"
     inkscape:bbox-nodes="true"
     showguides="true"
     inkscape:guide-bbox="true">
    <inkscape:grid
       type="xygrid"
       id="grid1044"
       empspacing="10" />
    <sodipodi:guide
       position="250,380"
       orientation="1,0"
       id="guide17315" />
  </sodipodi:namedview>
  <defs
     id="defs2">
    <rect
       x="140"
       y="200"
       width="220"
       height="150"
       id="rect6680" />
  </defs>
  <g
     inkscape:label="Layer 1"
     inkscape:groupmode="layer"
     id="layer1">
    <rect
       style="fill:#4d4d4d;stroke:none;stroke-width:5.42596"
       id="rect846"
       width="500"
       height="500"
       x="0"
       y="0" />
    <g
       aria-label="W"
       transform="matrix(10.101012,0,0,10.101012,-2275.2529,-1998.9669)"
       id="text6678"
       style="font-weight:bold;font-size:40px;line-height:1.25;font-family:Ubuntu;-inkscape-font-specification:'Ubuntu Bold';text-align:center;text-anchor:middle;white-space:pre;shape-inside:url(#rect6680);fill:#cccccc">
      <path
         d="m 252.84,212.53969 q 0.48,1.64 1.04,3.72 0.6,2.04 1.24,4.24 0.68,2.2 1.36,4.4 0.68,2.2 1.32,4.08 0.52,-2.04 1.04,-4.44 0.56,-2.4 1.04,-4.96 0.48,-2.56 0.92,-5.08 0.48,-2.56 0.88,-4.92 h 6.48 q -1.4,6.96 -3.24,14.12 -1.8,7.16 -3.92,13.6 h -5.72 q -1.4,-3.84 -2.72,-8.04 -1.32,-4.24 -2.6,-8.48 -1.28,4.24 -2.56,8.48 -1.28,4.2 -2.68,8.04 H 239 q -2.12,-6.44 -3.96,-13.6 -1.8,-7.16 -3.2,-14.12 h 6.76 q 0.4,2.36 0.88,4.92 0.48,2.52 1,5.08 0.52,2.56 1.04,4.96 0.56,2.4 1.12,4.44 0.72,-1.96 1.4,-4.16 0.68,-2.2 1.32,-4.4 0.64,-2.2 1.16,-4.24 0.56,-2.04 1,-3.64 z"
         id="path17106"
         style="fill:#cccccc" />
    </g>
  </g>
</svg>
